# Blender v3.5.0 OBJ File: 'Hurman3.blend'
# www.blender.org
mtllib HurmanR_feed1.mtl
o 立方体.005_立方体.008
v -0.340431 0.036648 -0.420660
v -0.340431 2.986437 -0.420660
v 0.436652 0.036648 -0.436302
v 0.436652 2.986437 -0.436302
v -0.325322 0.036648 0.329952
v -0.325322 2.986437 0.329952
v 0.451761 0.036648 0.314310
v 0.451761 2.986437 0.314310
vt 1.000000 0.333333
vt 0.666667 0.000000
vt 1.000000 0.000000
vt 0.333333 0.333333
vt 0.000000 0.000000
vt 0.333333 0.000000
vt 0.333333 0.666667
vt 0.000000 0.333333
vt 0.333333 0.333333
vt 0.666667 0.333333
vt 0.333333 0.000000
vt 0.666667 0.000000
vt 0.666667 0.333333
vt 0.333333 0.666667
vt 0.333333 0.333333
vt 0.333333 0.666667
vt 0.000000 1.000000
vt 0.000000 0.666667
vt 0.666667 0.333333
vt 0.000000 0.333333
vt 0.000000 0.666667
vt 0.333333 0.333333
vt 0.666667 0.666667
vt 0.333333 1.000000
vn -0.0201 0.0000 -0.9998
vn 0.9998 0.0000 -0.0201
vn 0.0201 0.0000 0.9998
vn -0.9998 0.0000 0.0201
vn 0.0000 -1.0000 0.0000
vn 0.0000 1.0000 -0.0000
usemtl マテリアル.005
s off
f 2/1/1 3/2/1 1/3/1
f 4/4/2 7/5/2 3/6/2
f 8/7/3 5/8/3 7/9/3
f 6/10/4 1/11/4 5/12/4
f 7/13/5 1/14/5 3/15/5
f 4/16/6 6/17/6 8/18/6
f 2/1/1 4/19/1 3/2/1
f 4/4/2 8/20/2 7/5/2
f 8/7/3 6/21/3 5/8/3
f 6/10/4 2/22/4 1/11/4
f 7/13/5 5/23/5 1/14/5
f 4/16/6 2/24/6 6/17/6
