# Blender v3.5.0 OBJ File: 'Hurman3.blend'
# www.blender.org
mtllib HurmanL_feed1.mtl
o 立方体_立方体.007
v -0.449918 0.042177 -0.365972
v -0.449918 3.054728 -0.365972
v 0.327165 0.042177 -0.381614
v 0.327165 3.054728 -0.381614
v -0.434809 0.042177 0.384639
v -0.434809 3.054728 0.384639
v 0.342274 0.042177 0.368998
v 0.342274 3.054728 0.368998
vt 1.000000 0.333333
vt 0.666667 0.000000
vt 1.000000 0.000000
vt 0.333333 0.333333
vt 0.000000 0.000000
vt 0.333333 0.000000
vt 0.333333 0.666667
vt 0.000000 0.333333
vt 0.333333 0.333333
vt 0.666667 0.333333
vt 0.333333 0.000000
vt 0.666667 0.000000
vt 0.666667 0.333333
vt 0.333333 0.666667
vt 0.333333 0.333333
vt 0.333333 0.666667
vt 0.000000 1.000000
vt 0.000000 0.666667
vt 0.666667 0.333333
vt 0.000000 0.333333
vt 0.000000 0.666667
vt 0.333333 0.333333
vt 0.666667 0.666667
vt 0.333333 1.000000
vn -0.0201 0.0000 -0.9998
vn 0.9998 0.0000 -0.0201
vn 0.0201 0.0000 0.9998
vn -0.9998 0.0000 0.0201
vn 0.0000 -1.0000 0.0000
vn 0.0000 1.0000 0.0000
usemtl マテリアル.004
s off
f 2/1/1 3/2/1 1/3/1
f 4/4/2 7/5/2 3/6/2
f 8/7/3 5/8/3 7/9/3
f 6/10/4 1/11/4 5/12/4
f 7/13/5 1/14/5 3/15/5
f 4/16/6 6/17/6 8/18/6
f 2/1/1 4/19/1 3/2/1
f 4/4/2 8/20/2 7/5/2
f 8/7/3 6/21/3 5/8/3
f 6/10/4 2/22/4 1/11/4
f 7/13/5 5/23/5 1/14/5
f 4/16/6 2/24/6 6/17/6
