# Blender v3.5.0 OBJ File: 'Hurman3.blend'
# www.blender.org
mtllib HurmanL_arm2.mtl
o 立方体.003_立方体.005
v -1.239742 -1.312231 -0.114932
v -1.607156 -0.807207 -0.176036
v 0.183728 0.092094 -0.154993
v -0.158952 0.359021 -0.195174
v -1.266710 -1.270409 0.392883
v -1.634124 -0.765384 0.331779
v 0.156760 0.133916 0.352823
v -0.185920 0.400843 0.312641
vt 0.951883 0.796126
vt 0.730729 0.409142
vt 0.951883 0.398063
vt 0.778569 0.398063
vt 1.000000 0.000000
vt 1.000000 0.398063
vt 0.413620 0.785046
vt 0.634774 0.398063
vt 0.634774 0.796126
vt 0.000000 0.796126
vt 0.317664 0.398063
vt 0.317664 0.796126
vt 0.398063 0.000000
vt 0.000000 0.398063
vt 0.000000 0.000000
vt 0.398063 0.000000
vt 0.778569 0.000000
vt 0.634774 0.777351
vt 0.317664 0.416838
vt 0.000000 0.398063
vt 0.398063 0.398063
vt 0.398063 0.398063
vn 0.0529 -0.0820 -0.9952
vn 0.6165 0.7867 -0.0320
vn -0.0529 0.0820 0.9952
vn -0.8089 -0.5879 0.0055
vn 0.7005 -0.7073 0.0954
vn -0.6250 0.7746 -0.0970
usemtl マテリアル.003
s off
f 1/1/1 4/2/1 3/3/1
f 4/4/2 7/5/2 3/6/2
f 8/7/3 5/8/3 7/9/3
f 6/10/4 1/11/4 5/12/4
f 7/13/5 1/14/5 3/15/5
f 4/4/6 6/16/6 8/17/6
f 1/1/1 2/18/1 4/2/1
f 4/4/2 8/17/2 7/5/2
f 8/7/3 6/19/3 5/8/3
f 6/10/4 2/20/4 1/11/4
f 7/13/5 5/21/5 1/14/5
f 4/4/6 2/22/6 6/16/6
