# Blender 3.6.1
# www.blender.org
mtllib straightroad.mtl
o NURBSパス
v 8.337158 0.009713 -1.974297
v -7.842762 0.011097 -2.025629
v 8.336887 0.009270 -1.889192
v -7.843031 0.010654 -1.940524
v 8.336619 0.008827 -1.804087
v -7.843303 0.010211 -1.855420
v 8.336349 0.008384 -1.718982
v -7.843572 0.009769 -1.770315
v 8.336078 0.007942 -1.633878
v -7.843841 0.009326 -1.685210
v 8.335808 0.007499 -1.548773
v -7.844113 0.008883 -1.600105
v 8.335539 0.007056 -1.463668
v -7.844384 0.008440 -1.515000
v 8.335269 0.006613 -1.378563
v -7.844654 0.007998 -1.429896
v 8.334998 0.006171 -1.293458
v -7.844923 0.007555 -1.344791
v 8.334729 0.005728 -1.208354
v -7.845193 0.007112 -1.259686
v 8.334459 0.005285 -1.123249
v -7.845463 0.006669 -1.174581
v 8.334187 0.004842 -1.038144
v -7.845732 0.006226 -1.089476
v 8.333919 0.004400 -0.953039
v -7.846004 0.005784 -1.004372
v 8.333649 0.003957 -0.867934
v -7.846274 0.005341 -0.919267
v 8.333379 0.003514 -0.782830
v -7.846544 0.004898 -0.834162
v 8.333109 0.003071 -0.697725
v -7.846814 0.004455 -0.749057
v 8.332840 0.002629 -0.612620
v -7.847085 0.004013 -0.663952
v 8.332570 0.002186 -0.527515
v -7.847354 0.003570 -0.578848
v 8.332298 0.001743 -0.442410
v -7.847624 0.003127 -0.493743
v 8.332027 0.001300 -0.357306
v -7.847893 0.002684 -0.408638
v 8.331758 0.000858 -0.272201
v -7.848164 0.002242 -0.323533
v 8.331489 0.000415 -0.187096
v -7.848434 0.001799 -0.238428
v 8.331219 -0.000028 -0.101991
v -7.848704 0.001356 -0.153324
v 8.330949 -0.000471 -0.016886
v -7.848974 0.000913 -0.068219
v 8.330677 -0.000913 0.068219
v -7.849244 0.000471 0.016886
v 8.330407 -0.001356 0.153323
v -7.849514 0.000028 0.101991
v 8.330138 -0.001799 0.238428
v -7.849784 -0.000415 0.187096
v 8.329868 -0.002242 0.323533
v -7.850054 -0.000858 0.272201
v 8.329598 -0.002684 0.408638
v -7.850324 -0.001300 0.357305
v 8.329328 -0.003127 0.493743
v -7.850593 -0.001743 0.442410
v 8.329057 -0.003570 0.578847
v -7.850864 -0.002186 0.527515
v 8.328787 -0.004013 0.663952
v -7.851134 -0.002629 0.612620
v 8.328517 -0.004455 0.749057
v -7.851404 -0.003071 0.697725
v 8.328247 -0.004898 0.834162
v -7.851674 -0.003514 0.782829
v 8.327977 -0.005341 0.919267
v -7.851943 -0.003957 0.867934
v 8.327706 -0.005784 1.004371
v -7.852212 -0.004400 0.953039
v 8.327437 -0.006226 1.089476
v -7.852483 -0.004842 1.038144
v 8.327167 -0.006669 1.174581
v -7.852754 -0.005285 1.123248
v 8.326897 -0.007112 1.259686
v -7.853024 -0.005728 1.208353
v 8.326627 -0.007555 1.344791
v -7.853294 -0.006171 1.293458
v 8.326357 -0.007998 1.429895
v -7.853564 -0.006613 1.378563
v 8.326086 -0.008440 1.515000
v -7.853833 -0.007056 1.463668
v 8.325817 -0.008883 1.600105
v -7.854104 -0.007499 1.548773
v 8.325546 -0.009326 1.685210
v -7.854374 -0.007942 1.633877
v 8.325276 -0.009769 1.770315
v -7.854644 -0.008384 1.718982
v 8.325006 -0.010211 1.855419
v -7.854914 -0.008827 1.804087
v 8.324737 -0.010654 1.940524
v -7.855184 -0.009270 1.889192
v 8.324467 -0.011097 2.025629
v -7.855454 -0.009713 1.974296
vn 0.0001 1.0000 0.0052
vt 0.000000 1.000000
vt 0.021277 1.000000
vt 0.021277 0.000000
vt 0.000000 0.000000
vt 0.042553 1.000000
vt 0.042553 0.000000
vt 0.063830 1.000000
vt 0.063830 0.000000
vt 0.085106 1.000000
vt 0.085106 0.000000
vt 0.106383 1.000000
vt 0.106383 0.000000
vt 0.127660 1.000000
vt 0.127660 0.000000
vt 0.148936 1.000000
vt 0.148936 0.000000
vt 0.170213 1.000000
vt 0.170213 0.000000
vt 0.191489 1.000000
vt 0.191489 0.000000
vt 0.212766 1.000000
vt 0.212766 0.000000
vt 0.234043 1.000000
vt 0.234043 0.000000
vt 0.255319 1.000000
vt 0.255319 0.000000
vt 0.276596 1.000000
vt 0.276596 0.000000
vt 0.297872 1.000000
vt 0.297872 0.000000
vt 0.319149 1.000000
vt 0.319149 0.000000
vt 0.340426 1.000000
vt 0.340426 0.000000
vt 0.361702 1.000000
vt 0.361702 0.000000
vt 0.382979 1.000000
vt 0.382979 0.000000
vt 0.404255 1.000000
vt 0.404255 0.000000
vt 0.425532 1.000000
vt 0.425532 0.000000
vt 0.446809 1.000000
vt 0.446809 0.000000
vt 0.468085 1.000000
vt 0.468085 0.000000
vt 0.489362 1.000000
vt 0.489362 0.000000
vt 0.510638 1.000000
vt 0.510638 0.000000
vt 0.531915 1.000000
vt 0.531915 0.000000
vt 0.553191 1.000000
vt 0.553191 0.000000
vt 0.574468 1.000000
vt 0.574468 0.000000
vt 0.595745 1.000000
vt 0.595745 0.000000
vt 0.617021 1.000000
vt 0.617021 0.000000
vt 0.638298 1.000000
vt 0.638298 0.000000
vt 0.659574 1.000000
vt 0.659574 0.000000
vt 0.680851 1.000000
vt 0.680851 0.000000
vt 0.702128 1.000000
vt 0.702128 0.000000
vt 0.723404 1.000000
vt 0.723404 0.000000
vt 0.744681 1.000000
vt 0.744681 0.000000
vt 0.765957 1.000000
vt 0.765957 0.000000
vt 0.787234 1.000000
vt 0.787234 0.000000
vt 0.808511 1.000000
vt 0.808511 0.000000
vt 0.829787 1.000000
vt 0.829787 0.000000
vt 0.851064 1.000000
vt 0.851064 0.000000
vt 0.872340 1.000000
vt 0.872340 0.000000
vt 0.893617 1.000000
vt 0.893617 0.000000
vt 0.914894 1.000000
vt 0.914894 0.000000
vt 0.936170 1.000000
vt 0.936170 0.000000
vt 0.957447 1.000000
vt 0.957447 0.000000
vt 0.978723 1.000000
vt 0.978723 0.000000
vt 1.000000 1.000000
vt 1.000000 0.000000
s 1
f 2/1/1 4/2/1 3/3/1 1/4/1
f 4/2/1 6/5/1 5/6/1 3/3/1
f 6/5/1 8/7/1 7/8/1 5/6/1
f 8/7/1 10/9/1 9/10/1 7/8/1
f 10/9/1 12/11/1 11/12/1 9/10/1
f 12/11/1 14/13/1 13/14/1 11/12/1
f 14/13/1 16/15/1 15/16/1 13/14/1
f 16/15/1 18/17/1 17/18/1 15/16/1
f 18/17/1 20/19/1 19/20/1 17/18/1
f 20/19/1 22/21/1 21/22/1 19/20/1
f 22/21/1 24/23/1 23/24/1 21/22/1
f 24/23/1 26/25/1 25/26/1 23/24/1
f 26/25/1 28/27/1 27/28/1 25/26/1
f 28/27/1 30/29/1 29/30/1 27/28/1
f 30/29/1 32/31/1 31/32/1 29/30/1
f 32/31/1 34/33/1 33/34/1 31/32/1
f 34/33/1 36/35/1 35/36/1 33/34/1
f 36/35/1 38/37/1 37/38/1 35/36/1
f 38/37/1 40/39/1 39/40/1 37/38/1
f 40/39/1 42/41/1 41/42/1 39/40/1
f 42/41/1 44/43/1 43/44/1 41/42/1
f 44/43/1 46/45/1 45/46/1 43/44/1
f 46/45/1 48/47/1 47/48/1 45/46/1
f 48/47/1 50/49/1 49/50/1 47/48/1
f 50/49/1 52/51/1 51/52/1 49/50/1
f 52/51/1 54/53/1 53/54/1 51/52/1
f 54/53/1 56/55/1 55/56/1 53/54/1
f 56/55/1 58/57/1 57/58/1 55/56/1
f 58/57/1 60/59/1 59/60/1 57/58/1
f 60/59/1 62/61/1 61/62/1 59/60/1
f 62/61/1 64/63/1 63/64/1 61/62/1
f 64/63/1 66/65/1 65/66/1 63/64/1
f 66/65/1 68/67/1 67/68/1 65/66/1
f 68/67/1 70/69/1 69/70/1 67/68/1
f 70/69/1 72/71/1 71/72/1 69/70/1
f 72/71/1 74/73/1 73/74/1 71/72/1
f 74/73/1 76/75/1 75/76/1 73/74/1
f 76/75/1 78/77/1 77/78/1 75/76/1
f 78/77/1 80/79/1 79/80/1 77/78/1
f 80/79/1 82/81/1 81/82/1 79/80/1
f 82/81/1 84/83/1 83/84/1 81/82/1
f 84/83/1 86/85/1 85/86/1 83/84/1
f 86/85/1 88/87/1 87/88/1 85/86/1
f 88/87/1 90/89/1 89/90/1 87/88/1
f 90/89/1 92/91/1 91/92/1 89/90/1
f 92/91/1 94/93/1 93/94/1 91/92/1
f 94/93/1 96/95/1 95/96/1 93/94/1
o NURBSパス
v 8.337158 0.009713 -1.974297
v -7.842762 0.011097 -2.025629
v 8.336887 0.009270 -1.889192
v -7.843031 0.010654 -1.940524
v 8.336619 0.008827 -1.804087
v -7.843303 0.010211 -1.855420
v 8.336349 0.008384 -1.718982
v -7.843572 0.009769 -1.770315
v 8.336078 0.007942 -1.633878
v -7.843841 0.009326 -1.685210
v 8.335808 0.007499 -1.548773
v -7.844113 0.008883 -1.600105
v 8.335539 0.007056 -1.463668
v -7.844384 0.008440 -1.515000
v 8.335269 0.006613 -1.378563
v -7.844654 0.007998 -1.429896
v 8.334998 0.006171 -1.293458
v -7.844923 0.007555 -1.344791
v 8.334729 0.005728 -1.208354
v -7.845193 0.007112 -1.259686
v 8.334459 0.005285 -1.123249
v -7.845463 0.006669 -1.174581
v 8.334187 0.004842 -1.038144
v -7.845732 0.006226 -1.089476
v 8.333919 0.004400 -0.953039
v -7.846004 0.005784 -1.004372
v 8.333649 0.003957 -0.867934
v -7.846274 0.005341 -0.919267
v 8.333379 0.003514 -0.782830
v -7.846544 0.004898 -0.834162
v 8.333109 0.003071 -0.697725
v -7.846814 0.004455 -0.749057
v 8.332840 0.002629 -0.612620
v -7.847085 0.004013 -0.663952
v 8.332570 0.002186 -0.527515
v -7.847354 0.003570 -0.578848
v 8.332298 0.001743 -0.442410
v -7.847624 0.003127 -0.493743
v 8.332027 0.001300 -0.357306
v -7.847893 0.002684 -0.408638
v 8.331758 0.000858 -0.272201
v -7.848164 0.002242 -0.323533
v 8.331489 0.000415 -0.187096
v -7.848434 0.001799 -0.238428
v 8.331219 -0.000028 -0.101991
v -7.848704 0.001356 -0.153324
v 8.330949 -0.000471 -0.016886
v -7.848974 0.000913 -0.068219
v 8.330677 -0.000913 0.068219
v -7.849244 0.000471 0.016886
v 8.330407 -0.001356 0.153323
v -7.849514 0.000028 0.101991
v 8.330138 -0.001799 0.238428
v -7.849784 -0.000415 0.187096
v 8.329868 -0.002242 0.323533
v -7.850054 -0.000858 0.272201
v 8.329598 -0.002684 0.408638
v -7.850324 -0.001300 0.357305
v 8.329328 -0.003127 0.493743
v -7.850593 -0.001743 0.442410
v 8.329057 -0.003570 0.578847
v -7.850864 -0.002186 0.527515
v 8.328787 -0.004013 0.663952
v -7.851134 -0.002629 0.612620
v 8.328517 -0.004455 0.749057
v -7.851404 -0.003071 0.697725
v 8.328247 -0.004898 0.834162
v -7.851674 -0.003514 0.782829
v 8.327977 -0.005341 0.919267
v -7.851943 -0.003957 0.867934
v 8.327706 -0.005784 1.004371
v -7.852212 -0.004400 0.953039
v 8.327437 -0.006226 1.089476
v -7.852483 -0.004842 1.038144
v 8.327167 -0.006669 1.174581
v -7.852754 -0.005285 1.123248
v 8.326897 -0.007112 1.259686
v -7.853024 -0.005728 1.208353
v 8.326627 -0.007555 1.344791
v -7.853294 -0.006171 1.293458
v 8.326357 -0.007998 1.429895
v -7.853564 -0.006613 1.378563
v 8.326086 -0.008440 1.515000
v -7.853833 -0.007056 1.463668
v 8.325817 -0.008883 1.600105
v -7.854104 -0.007499 1.548773
v 8.325546 -0.009326 1.685210
v -7.854374 -0.007942 1.633877
v 8.325276 -0.009769 1.770315
v -7.854644 -0.008384 1.718982
v 8.325006 -0.010211 1.855419
v -7.854914 -0.008827 1.804087
v 8.324737 -0.010654 1.940524
v -7.855184 -0.009270 1.889192
v 8.324467 -0.011097 2.025629
v -7.855454 -0.009713 1.974296
vn 0.0001 1.0000 0.0052
vt 0.000000 1.000000
vt 0.021277 1.000000
vt 0.021277 0.000000
vt 0.000000 0.000000
vt 0.042553 1.000000
vt 0.042553 0.000000
vt 0.063830 1.000000
vt 0.063830 0.000000
vt 0.085106 1.000000
vt 0.085106 0.000000
vt 0.106383 1.000000
vt 0.106383 0.000000
vt 0.127660 1.000000
vt 0.127660 0.000000
vt 0.148936 1.000000
vt 0.148936 0.000000
vt 0.170213 1.000000
vt 0.170213 0.000000
vt 0.191489 1.000000
vt 0.191489 0.000000
vt 0.212766 1.000000
vt 0.212766 0.000000
vt 0.234043 1.000000
vt 0.234043 0.000000
vt 0.255319 1.000000
vt 0.255319 0.000000
vt 0.276596 1.000000
vt 0.276596 0.000000
vt 0.297872 1.000000
vt 0.297872 0.000000
vt 0.319149 1.000000
vt 0.319149 0.000000
vt 0.340426 1.000000
vt 0.340426 0.000000
vt 0.361702 1.000000
vt 0.361702 0.000000
vt 0.382979 1.000000
vt 0.382979 0.000000
vt 0.404255 1.000000
vt 0.404255 0.000000
vt 0.425532 1.000000
vt 0.425532 0.000000
vt 0.446809 1.000000
vt 0.446809 0.000000
vt 0.468085 1.000000
vt 0.468085 0.000000
vt 0.489362 1.000000
vt 0.489362 0.000000
vt 0.510638 1.000000
vt 0.510638 0.000000
vt 0.531915 1.000000
vt 0.531915 0.000000
vt 0.553191 1.000000
vt 0.553191 0.000000
vt 0.574468 1.000000
vt 0.574468 0.000000
vt 0.595745 1.000000
vt 0.595745 0.000000
vt 0.617021 1.000000
vt 0.617021 0.000000
vt 0.638298 1.000000
vt 0.638298 0.000000
vt 0.659574 1.000000
vt 0.659574 0.000000
vt 0.680851 1.000000
vt 0.680851 0.000000
vt 0.702128 1.000000
vt 0.702128 0.000000
vt 0.723404 1.000000
vt 0.723404 0.000000
vt 0.744681 1.000000
vt 0.744681 0.000000
vt 0.765957 1.000000
vt 0.765957 0.000000
vt 0.787234 1.000000
vt 0.787234 0.000000
vt 0.808511 1.000000
vt 0.808511 0.000000
vt 0.829787 1.000000
vt 0.829787 0.000000
vt 0.851064 1.000000
vt 0.851064 0.000000
vt 0.872340 1.000000
vt 0.872340 0.000000
vt 0.893617 1.000000
vt 0.893617 0.000000
vt 0.914894 1.000000
vt 0.914894 0.000000
vt 0.936170 1.000000
vt 0.936170 0.000000
vt 0.957447 1.000000
vt 0.957447 0.000000
vt 0.978723 1.000000
vt 0.978723 0.000000
vt 1.000000 1.000000
vt 1.000000 0.000000
s 1
f 98/97/2 100/98/2 99/99/2 97/100/2
f 100/98/2 102/101/2 101/102/2 99/99/2
f 102/101/2 104/103/2 103/104/2 101/102/2
f 104/103/2 106/105/2 105/106/2 103/104/2
f 106/105/2 108/107/2 107/108/2 105/106/2
f 108/107/2 110/109/2 109/110/2 107/108/2
f 110/109/2 112/111/2 111/112/2 109/110/2
f 112/111/2 114/113/2 113/114/2 111/112/2
f 114/113/2 116/115/2 115/116/2 113/114/2
f 116/115/2 118/117/2 117/118/2 115/116/2
f 118/117/2 120/119/2 119/120/2 117/118/2
f 120/119/2 122/121/2 121/122/2 119/120/2
f 122/121/2 124/123/2 123/124/2 121/122/2
f 124/123/2 126/125/2 125/126/2 123/124/2
f 126/125/2 128/127/2 127/128/2 125/126/2
f 128/127/2 130/129/2 129/130/2 127/128/2
f 130/129/2 132/131/2 131/132/2 129/130/2
f 132/131/2 134/133/2 133/134/2 131/132/2
f 134/133/2 136/135/2 135/136/2 133/134/2
f 136/135/2 138/137/2 137/138/2 135/136/2
f 138/137/2 140/139/2 139/140/2 137/138/2
f 140/139/2 142/141/2 141/142/2 139/140/2
f 142/141/2 144/143/2 143/144/2 141/142/2
f 144/143/2 146/145/2 145/146/2 143/144/2
f 146/145/2 148/147/2 147/148/2 145/146/2
f 148/147/2 150/149/2 149/150/2 147/148/2
f 150/149/2 152/151/2 151/152/2 149/150/2
f 152/151/2 154/153/2 153/154/2 151/152/2
f 154/153/2 156/155/2 155/156/2 153/154/2
f 156/155/2 158/157/2 157/158/2 155/156/2
f 158/157/2 160/159/2 159/160/2 157/158/2
f 160/159/2 162/161/2 161/162/2 159/160/2
f 162/161/2 164/163/2 163/164/2 161/162/2
f 164/163/2 166/165/2 165/166/2 163/164/2
f 166/165/2 168/167/2 167/168/2 165/166/2
f 168/167/2 170/169/2 169/170/2 167/168/2
f 170/169/2 172/171/2 171/172/2 169/170/2
f 172/171/2 174/173/2 173/174/2 171/172/2
f 174/173/2 176/175/2 175/176/2 173/174/2
f 176/175/2 178/177/2 177/178/2 175/176/2
f 178/177/2 180/179/2 179/180/2 177/178/2
f 180/179/2 182/181/2 181/182/2 179/180/2
f 182/181/2 184/183/2 183/184/2 181/182/2
f 184/183/2 186/185/2 185/186/2 183/184/2
f 186/185/2 188/187/2 187/188/2 185/186/2
f 188/187/2 190/189/2 189/190/2 187/188/2
f 190/189/2 192/191/2 191/192/2 189/190/2
