# Blender v3.5.0 OBJ File: 'Hurman3.blend'
# www.blender.org
mtllib HurmanL_arm1.mtl
o 立方体.004_立方体.006
v -0.623398 1.115759 -0.529299
v 0.094440 0.404187 -0.543749
v -2.511809 -1.208307 -0.491288
v -2.093334 -1.803743 -0.499711
v -0.599710 1.115759 0.647509
v 0.118128 0.404187 0.633060
v -2.488121 -1.208307 0.685521
v -2.069646 -1.803743 0.677097
v -1.417922 -0.104342 -0.513306
v -0.999447 -0.699778 -0.521730
v -1.394234 -0.104342 0.663502
v -0.975759 -0.699778 0.655078
vt 0.666667 0.166667
vt 0.902913 0.013756
vt 0.902913 0.180423
vt 0.666667 0.666667
vt 0.903313 0.333333
vt 0.903313 0.666667
vt 0.097087 0.514398
vt 0.333333 0.667308
vt 0.000000 0.667308
vt 0.666667 0.333333
vt 0.333333 0.000000
vt 0.666667 0.000000
vt 0.000000 0.173931
vt 0.333333 0.173931
vt 0.666667 0.500000
vt 0.333333 0.666667
vt 0.333333 0.500000
vt 0.666667 0.333333
vt 0.333333 0.333333
vt 0.000000 0.333975
vt 0.333333 0.333975
vt 0.097087 0.347731
vt 0.333333 0.500642
vt 0.666667 0.333333
vt 1.000000 0.333333
vt 0.666667 0.000000
vt 0.666667 0.333333
vt 0.333333 0.333333
vt 0.000000 0.000000
vt 0.666667 0.666667
vt 0.333333 0.333975
vn -0.0201 0.0000 -0.9998
vn -0.8179 -0.5751 0.0165
vn 0.0201 0.0000 0.9998
vn 0.7038 0.7103 -0.0142
vn -0.8378 0.5458 0.0169
vn 0.7101 -0.7039 -0.0143
vn -0.7101 0.7039 0.0143
usemtl マテリアル.001
s off
f 10/1/1 3/2/1 9/3/1
f 4/4/2 7/5/2 3/6/2
f 11/7/3 6/8/3 5/9/3
f 6/10/4 1/11/4 5/12/4
f 11/13/5 1/11/5 9/14/5
f 10/15/6 6/16/6 12/17/6
f 4/18/6 12/17/6 8/19/6
f 7/20/7 9/14/7 3/21/7
f 7/22/3 12/23/3 11/7/3
f 2/24/1 9/3/1 1/25/1
f 10/1/1 4/26/1 3/2/1
f 4/4/2 8/27/2 7/5/2
f 11/7/3 12/23/3 6/8/3
f 6/10/4 2/28/4 1/11/4
f 11/13/5 5/29/5 1/11/5
f 10/15/6 2/30/6 6/16/6
f 4/18/6 10/15/6 12/17/6
f 7/20/7 11/13/7 9/14/7
f 7/22/3 8/31/3 12/23/3
f 2/24/1 10/1/1 9/3/1
